<svg width="337" height="337" viewBox="0 0 337 337" fill="none" xmlns="http://www.w3.org/2000/svg">
<path d="M296.464 241.212C296.464 257.997 292.129 272.123 283.457 283.592C274.785 294.782 263.036 303.314 248.21 309.188C233.664 315.063 217.719 318 200.375 318H56.4512V20.0811H215.9C229.887 20.0811 241.916 23.8575 251.986 31.4103C262.337 38.6835 270.169 48.1945 275.484 59.9434C281.079 71.4126 283.876 83.4413 283.876 96.0294C283.876 110.296 280.24 123.863 272.967 136.731C265.693 149.599 255.063 159.11 241.077 165.264C258.141 170.299 271.568 179.391 281.359 192.538C291.429 205.686 296.464 221.911 296.464 241.212ZM238.139 230.303C238.139 222.75 236.601 216.036 233.524 210.162C230.447 204.008 226.251 199.252 220.936 195.895C215.9 192.259 210.026 190.44 203.312 190.44H114.356V268.906H200.375C207.368 268.906 213.663 267.228 219.257 263.871C225.132 260.234 229.747 255.479 233.104 249.605C236.461 243.73 238.139 237.296 238.139 230.303ZM114.356 69.5943V144.703H191.563C197.997 144.703 203.872 143.165 209.187 140.088C214.502 137.011 218.698 132.675 221.775 127.08C225.132 121.485 226.81 114.772 226.81 106.939C226.81 99.3862 225.272 92.8124 222.195 87.2177C219.397 81.623 215.481 77.2871 210.446 74.21C205.69 71.1329 200.235 69.5943 194.081 69.5943H114.356Z" fill="#4791F4" fill-opacity="0.5"/>
</svg>
