<svg width="100" height="100" viewBox="0 0 100 100" fill="none" xmlns="http://www.w3.org/2000/svg">
<path fill-rule="evenodd" clip-rule="evenodd" d="M54.7507 68.5255C60.1152 67.4305 64.9365 64.5157 68.3988 60.2744C71.8611 56.0331 73.7517 50.7258 73.7506 45.2507V12.001H26.251V45.2507C26.2499 50.7258 28.1404 56.0331 31.6027 60.2744C35.065 64.5157 39.8864 67.4305 45.2508 68.5255V78.5004H35.7509V88.0003H64.2507V78.5004H54.7507V68.5255ZM35.7509 21.5009H64.2507V45.2507C64.2507 49.03 62.7493 52.6545 60.077 55.3269C57.4046 57.9993 53.7801 59.5006 50.0008 59.5006C46.2215 59.5006 42.597 57.9993 39.9246 55.3269C37.2522 52.6545 35.7509 49.03 35.7509 45.2507V21.5009Z" fill="black"/>
<path d="M78.5004 21.5H88.0003V45.2498H78.5004V21.5ZM21.5009 21.5H12.001V45.2498H21.5009V21.5Z" fill="black"/>
</svg>
