<svg width="289" height="257" viewBox="0 0 289 257" fill="none" xmlns="http://www.w3.org/2000/svg">
<path d="M144.5 60.3594C182.13 60.3594 212.641 91.0886 212.641 129C212.641 166.911 182.13 197.641 144.5 197.641C106.87 197.641 76.3594 166.911 76.3594 129C76.3594 91.0886 106.87 60.3594 144.5 60.3594Z" stroke="black" stroke-width="0.719632"/>
<path d="M111.13 119C111.13 118.136 111.197 117.359 111.332 116.668C111.466 115.958 111.696 115.306 112.023 114.711C112.368 114.116 112.829 113.56 113.404 113.041C113.999 112.523 114.748 112.015 115.65 111.516C116.436 111.094 117.127 110.729 117.722 110.422C118.336 110.096 118.845 109.798 119.248 109.53C119.651 109.261 119.958 108.992 120.169 108.724C120.38 108.436 120.485 108.11 120.485 107.745C120.485 107.169 120.255 106.68 119.795 106.277C119.334 105.855 118.672 105.644 117.808 105.644C117.348 105.644 116.926 105.711 116.542 105.845C116.158 105.96 115.793 106.123 115.448 106.334C115.122 106.546 114.815 106.785 114.527 107.054C114.258 107.304 114.009 107.572 113.778 107.86L111.303 105.01C111.552 104.742 111.907 104.454 112.368 104.147C112.829 103.821 113.366 103.523 113.98 103.254C114.613 102.967 115.304 102.736 116.053 102.564C116.82 102.372 117.636 102.276 118.499 102.276C119.478 102.276 120.351 102.4 121.119 102.65C121.886 102.88 122.529 103.216 123.047 103.657C123.585 104.08 123.988 104.598 124.256 105.212C124.544 105.807 124.688 106.459 124.688 107.169C124.688 107.841 124.563 108.436 124.314 108.954C124.064 109.472 123.748 109.933 123.364 110.336C122.98 110.739 122.558 111.094 122.097 111.401C121.656 111.689 121.224 111.948 120.802 112.178C120.457 112.37 120.063 112.59 119.622 112.84C119.181 113.089 118.739 113.368 118.298 113.675C117.876 113.963 117.482 114.27 117.118 114.596C116.753 114.903 116.475 115.21 116.283 115.517H125.005V119H111.13ZM135.265 122.656V118.367H126.86V114.941L136.503 102.564H139.123V114.912H141.656V118.367H139.123V122.656H135.265ZM130.717 114.912H135.697V108.407L130.717 114.912ZM162.044 98.5625L147.766 119H143.506L157.755 98.5625H162.044ZM172.932 105.73H163.634V102.218H179.005L168.873 122.656H164.498L172.932 105.73Z" fill="black"/>
<path d="M97.3882 154.505C96.9852 154.505 96.5726 154.457 96.1505 154.362C95.7475 154.266 95.2773 154.122 94.74 153.93L95.4884 150.879C95.7763 151.013 96.0449 151.109 96.2944 151.166C96.5631 151.224 96.8029 151.253 97.014 151.253C97.4938 151.253 97.916 151.08 98.2806 150.735C98.6644 150.389 98.9714 149.861 99.2017 149.151L99.6623 147.914L93.5598 132.917H97.5609L101.62 144.056L105.189 132.917H108.874L102.714 150.159C102.387 151.08 101.955 151.857 101.418 152.491C100.881 153.143 100.267 153.642 99.5759 153.987C98.8851 154.333 98.1558 154.505 97.3882 154.505ZM110.969 148V132.917H114.826V138.616H116.122L120.209 132.917H124.412L119.058 140.199L124.988 148H120.584L116.064 142.013H114.826V148H110.969ZM136.424 148.288C135.254 148.288 134.218 148.029 133.316 147.511C132.433 146.973 131.742 146.254 131.243 145.352V154.131H127.386V132.917H130.754V135.507C131.329 134.624 132.059 133.934 132.941 133.435C133.824 132.917 134.832 132.657 135.964 132.657C136.981 132.657 137.912 132.859 138.756 133.262C139.62 133.665 140.368 134.231 141.001 134.96C141.635 135.67 142.124 136.495 142.469 137.436C142.834 138.357 143.016 139.355 143.016 140.429C143.016 141.888 142.728 143.212 142.153 144.402C141.596 145.592 140.819 146.542 139.821 147.252C138.842 147.942 137.71 148.288 136.424 148.288ZM135.129 145.006C135.724 145.006 136.261 144.882 136.741 144.632C137.221 144.383 137.633 144.047 137.979 143.625C138.343 143.183 138.612 142.694 138.785 142.157C138.977 141.6 139.073 141.024 139.073 140.429C139.073 139.796 138.967 139.211 138.756 138.674C138.564 138.136 138.276 137.666 137.892 137.263C137.509 136.841 137.058 136.515 136.54 136.284C136.041 136.054 135.494 135.939 134.899 135.939C134.534 135.939 134.16 136.006 133.776 136.14C133.412 136.256 133.057 136.428 132.711 136.659C132.366 136.889 132.059 137.158 131.79 137.465C131.541 137.772 131.358 138.107 131.243 138.472V142.013C131.473 142.569 131.78 143.078 132.164 143.538C132.567 143.999 133.028 144.363 133.546 144.632C134.064 144.882 134.592 145.006 135.129 145.006ZM144.593 143.538C144.593 142.56 144.862 141.706 145.399 140.976C145.956 140.228 146.723 139.652 147.702 139.249C148.681 138.846 149.803 138.645 151.07 138.645C151.703 138.645 152.346 138.693 152.999 138.789C153.651 138.885 154.217 139.038 154.697 139.249V138.443C154.697 137.484 154.409 136.745 153.833 136.227C153.277 135.709 152.442 135.45 151.329 135.45C150.504 135.45 149.717 135.594 148.969 135.881C148.22 136.169 147.434 136.591 146.608 137.148L145.371 134.615C146.368 133.962 147.386 133.473 148.422 133.147C149.477 132.821 150.581 132.657 151.732 132.657C153.881 132.657 155.551 133.195 156.741 134.269C157.95 135.344 158.554 136.879 158.554 138.875V143.682C158.554 144.085 158.621 144.373 158.756 144.546C158.909 144.718 159.149 144.824 159.475 144.862V148C159.13 148.058 158.813 148.106 158.525 148.144C158.257 148.182 158.026 148.201 157.835 148.201C157.067 148.201 156.482 148.029 156.079 147.683C155.695 147.338 155.455 146.916 155.359 146.417L155.273 145.64C154.62 146.484 153.805 147.136 152.826 147.597C151.847 148.058 150.849 148.288 149.832 148.288C148.834 148.288 147.932 148.086 147.126 147.683C146.34 147.261 145.716 146.695 145.255 145.985C144.814 145.256 144.593 144.44 144.593 143.538ZM153.977 144.315C154.188 144.085 154.361 143.855 154.495 143.625C154.63 143.394 154.697 143.183 154.697 142.991V141.466C154.236 141.274 153.737 141.13 153.2 141.034C152.663 140.919 152.154 140.861 151.675 140.861C150.677 140.861 149.851 141.082 149.199 141.523C148.566 141.945 148.249 142.512 148.249 143.222C148.249 143.605 148.355 143.97 148.566 144.315C148.777 144.661 149.084 144.939 149.487 145.15C149.89 145.361 150.37 145.467 150.926 145.467C151.502 145.467 152.068 145.361 152.624 145.15C153.181 144.92 153.632 144.642 153.977 144.315ZM162.159 148V132.917H166.016V148H162.159ZM159.712 130.585V127.159H162.907V130.585H159.712ZM165.239 130.585V127.159H168.434V130.585H165.239ZM169.496 148V132.917H173.353V138.674H179.455V132.917H183.312V148H179.455V141.898H173.353V148H169.496ZM185.804 143.538C185.804 142.56 186.072 141.706 186.61 140.976C187.166 140.228 187.934 139.652 188.912 139.249C189.891 138.846 191.014 138.645 192.28 138.645C192.913 138.645 193.556 138.693 194.209 138.789C194.861 138.885 195.427 139.038 195.907 139.249V138.443C195.907 137.484 195.619 136.745 195.044 136.227C194.487 135.709 193.652 135.45 192.539 135.45C191.714 135.45 190.927 135.594 190.179 135.881C189.43 136.169 188.644 136.591 187.818 137.148L186.581 134.615C187.579 133.962 188.596 133.473 189.632 133.147C190.687 132.821 191.791 132.657 192.942 132.657C195.092 132.657 196.761 133.195 197.951 134.269C199.16 135.344 199.764 136.879 199.764 138.875V143.682C199.764 144.085 199.832 144.373 199.966 144.546C200.119 144.718 200.359 144.824 200.685 144.862V148C200.34 148.058 200.023 148.106 199.736 148.144C199.467 148.182 199.237 148.201 199.045 148.201C198.277 148.201 197.692 148.029 197.289 147.683C196.905 147.338 196.665 146.916 196.569 146.417L196.483 145.64C195.83 146.484 195.015 147.136 194.036 147.597C193.057 148.058 192.06 148.288 191.042 148.288C190.045 148.288 189.143 148.086 188.337 147.683C187.55 147.261 186.926 146.695 186.466 145.985C186.024 145.256 185.804 144.44 185.804 143.538ZM195.188 144.315C195.399 144.085 195.571 143.855 195.706 143.625C195.84 143.394 195.907 143.183 195.907 142.991V141.466C195.447 141.274 194.948 141.13 194.41 141.034C193.873 140.919 193.364 140.861 192.885 140.861C191.887 140.861 191.062 141.082 190.409 141.523C189.776 141.945 189.459 142.512 189.459 143.222C189.459 143.605 189.565 143.97 189.776 144.315C189.987 144.661 190.294 144.939 190.697 145.15C191.1 145.361 191.58 145.467 192.136 145.467C192.712 145.467 193.278 145.361 193.835 145.15C194.391 144.92 194.842 144.642 195.188 144.315Z" fill="black"/>
</svg>
