<svg width="289" height="257" viewBox="0 0 289 257" fill="none" xmlns="http://www.w3.org/2000/svg">
<path d="M144 60.3594C181.911 60.3594 212.641 90.8697 212.641 128.5C212.641 166.13 181.911 196.641 144 196.641C106.089 196.641 75.3594 166.13 75.3594 128.5C75.3594 90.8697 106.089 60.3594 144 60.3594Z" stroke="black" stroke-width="0.719632"/>
<path d="M107.926 126L103.55 119.466L101.478 121.509V126H97.6206V104.987H101.478V117.739L107.523 110.945H111.639L106.026 117.336L112.042 126H107.926ZM127.69 126H123.833V117.537C123.833 116.347 123.612 115.474 123.171 114.918C122.73 114.342 122.106 114.054 121.3 114.054C120.954 114.054 120.59 114.131 120.206 114.284C119.822 114.438 119.458 114.659 119.112 114.946C118.767 115.215 118.45 115.541 118.162 115.925C117.874 116.309 117.663 116.731 117.529 117.192V126H113.672V104.987H117.529V113.709C118.086 112.73 118.834 111.982 119.774 111.463C120.734 110.926 121.789 110.657 122.941 110.657C123.919 110.657 124.716 110.83 125.33 111.176C125.944 111.502 126.424 111.943 126.769 112.5C127.115 113.056 127.354 113.69 127.489 114.4C127.623 115.11 127.69 115.839 127.69 116.587V126ZM135.16 126.288C134.431 126.288 133.75 126.173 133.117 125.942C132.483 125.693 131.936 125.357 131.476 124.935C131.015 124.494 130.651 123.985 130.382 123.409C130.133 122.834 130.008 122.2 130.008 121.509C130.008 120.799 130.161 120.147 130.468 119.552C130.795 118.938 131.236 118.42 131.793 117.998C132.368 117.576 133.05 117.249 133.836 117.019C134.623 116.77 135.487 116.645 136.427 116.645C137.099 116.645 137.751 116.702 138.384 116.818C139.037 116.933 139.613 117.096 140.112 117.307V116.443C140.112 115.445 139.824 114.678 139.248 114.14C138.691 113.603 137.857 113.334 136.744 113.334C135.938 113.334 135.151 113.478 134.383 113.766C133.616 114.054 132.829 114.476 132.023 115.033L130.843 112.586C132.781 111.3 134.873 110.657 137.118 110.657C139.286 110.657 140.965 111.195 142.155 112.269C143.364 113.325 143.969 114.86 143.969 116.875V121.567C143.969 121.97 144.036 122.258 144.17 122.431C144.324 122.603 144.564 122.699 144.89 122.718V126C144.237 126.134 143.671 126.201 143.192 126.201C142.462 126.201 141.896 126.038 141.493 125.712C141.109 125.386 140.87 124.954 140.774 124.417L140.687 123.582C140.016 124.465 139.2 125.136 138.24 125.597C137.281 126.058 136.254 126.288 135.16 126.288ZM136.254 123.467C136.907 123.467 137.521 123.352 138.097 123.121C138.691 122.891 139.152 122.584 139.478 122.2C139.9 121.874 140.112 121.509 140.112 121.107V119.379C139.651 119.207 139.152 119.072 138.615 118.976C138.077 118.861 137.559 118.804 137.06 118.804C136.062 118.804 135.247 119.034 134.614 119.495C133.98 119.936 133.664 120.502 133.664 121.193C133.664 121.845 133.913 122.392 134.412 122.834C134.911 123.256 135.525 123.467 136.254 123.467ZM156.554 114.256C155.384 114.275 154.338 114.505 153.417 114.946C152.495 115.369 151.833 116.012 151.43 116.875V126H147.573V110.917H151.114V114.14C151.382 113.622 151.699 113.162 152.064 112.759C152.428 112.337 152.822 111.972 153.244 111.665C153.666 111.358 154.088 111.128 154.51 110.974C154.952 110.801 155.374 110.715 155.777 110.715C155.988 110.715 156.142 110.715 156.238 110.715C156.353 110.715 156.458 110.725 156.554 110.744V114.256ZM169.01 126L164.635 119.466L162.562 121.509V126H158.705V104.987H162.562V117.739L168.607 110.945H172.723L167.11 117.336L173.126 126H169.01ZM174.756 126V110.917H178.613V126H174.756ZM174.756 108.815V104.987H178.613V108.815H174.756ZM186.152 126L180.596 110.917H184.569L188.397 122.862L192.254 110.917H195.881L190.326 126H186.152ZM125.927 138.987H129.785V155.164C129.785 155.721 129.919 156.152 130.188 156.459C130.456 156.766 130.84 156.92 131.339 156.92C131.569 156.92 131.819 156.882 132.087 156.805C132.375 156.728 132.644 156.632 132.893 156.517L133.412 159.453C132.893 159.703 132.289 159.894 131.598 160.029C130.907 160.163 130.284 160.23 129.727 160.23C128.518 160.23 127.578 159.914 126.906 159.28C126.254 158.628 125.927 157.707 125.927 156.517V138.987ZM135.092 160V144.917H138.949V160H135.092ZM135.092 142.815V138.987H138.949V142.815H135.092ZM143.35 160V148.659H141.364V145.723H143.35V144.801C143.35 142.921 143.801 141.434 144.703 140.34C145.605 139.246 146.833 138.699 148.387 138.699C149.616 138.699 150.853 138.996 152.101 139.591L151.324 142.499C151.036 142.345 150.69 142.22 150.287 142.124C149.904 142.009 149.548 141.952 149.222 141.952C147.879 141.952 147.207 142.854 147.207 144.657V145.723H150.892V148.659H147.207V160H143.35ZM159.319 160.288C158.11 160.288 157.016 160.086 156.037 159.683C155.058 159.261 154.224 158.695 153.533 157.985C152.842 157.275 152.305 156.45 151.921 155.509C151.556 154.569 151.374 153.581 151.374 152.545C151.374 151.47 151.556 150.462 151.921 149.522C152.285 148.563 152.813 147.728 153.504 147.018C154.195 146.289 155.03 145.713 156.008 145.291C157.006 144.869 158.119 144.657 159.347 144.657C160.576 144.657 161.669 144.869 162.629 145.291C163.608 145.713 164.433 146.279 165.105 146.989C165.795 147.699 166.314 148.524 166.659 149.465C167.024 150.405 167.206 151.384 167.206 152.401C167.206 152.65 167.196 152.89 167.177 153.12C167.177 153.351 167.158 153.543 167.119 153.696H155.461C155.519 154.291 155.663 154.819 155.893 155.279C156.124 155.74 156.421 156.133 156.786 156.459C157.15 156.786 157.563 157.035 158.023 157.208C158.484 157.381 158.964 157.467 159.463 157.467C160.23 157.467 160.95 157.285 161.622 156.92C162.312 156.536 162.783 156.037 163.032 155.423L166.342 156.344C165.786 157.496 164.893 158.446 163.665 159.194C162.456 159.923 161.007 160.288 159.319 160.288ZM163.233 151.192C163.138 150.059 162.715 149.158 161.967 148.486C161.238 147.795 160.345 147.45 159.29 147.45C158.772 147.45 158.282 147.546 157.822 147.737C157.38 147.91 156.987 148.16 156.642 148.486C156.296 148.812 156.008 149.206 155.778 149.666C155.567 150.127 155.442 150.635 155.404 151.192H163.233Z" fill="black"/>
</svg>
