<svg width="289" height="257" viewBox="0 0 289 257" fill="none" xmlns="http://www.w3.org/2000/svg">
<circle cx="144" cy="124" r="68.6402" stroke="black" stroke-width="0.719632"/>
<path d="M130.622 145.767C129.955 145.767 129.272 145.687 128.574 145.529C127.907 145.37 127.128 145.132 126.239 144.814L127.478 139.764C127.954 139.986 128.399 140.145 128.812 140.241C129.256 140.336 129.653 140.383 130.003 140.383C130.797 140.383 131.496 140.098 132.099 139.526C132.734 138.954 133.242 138.081 133.623 136.906L134.386 134.857L124.286 110.036H130.908L137.625 128.473L143.533 110.036H149.631L139.436 138.573C138.896 140.098 138.181 141.384 137.292 142.432C136.403 143.512 135.386 144.338 134.243 144.909C133.099 145.481 131.893 145.767 130.622 145.767ZM154.338 122.28V100.841H160.722V122.28H154.338ZM154.338 135V127.806H160.722V135H154.338Z" fill="black"/>
</svg>
