<svg width="289" height="257" viewBox="0 0 289 257" fill="none" xmlns="http://www.w3.org/2000/svg">
<path d="M144.5 60.3594C182.13 60.3594 212.641 91.0886 212.641 129C212.641 166.911 182.13 197.641 144.5 197.641C106.87 197.641 76.3594 166.911 76.3594 129C76.3594 91.0886 106.87 60.3594 144.5 60.3594Z" stroke="black" stroke-width="0.719632"/>
<path d="M113.671 140V120.61H105.762V115.036H128.011V120.61H120.055V140H113.671ZM143.211 140.476C141.179 140.476 139.353 140.143 137.733 139.476C136.113 138.777 134.731 137.824 133.588 136.617C132.445 135.379 131.555 133.981 130.92 132.425C130.317 130.869 130.015 129.233 130.015 127.518C130.015 125.168 130.539 123.024 131.587 121.087C132.667 119.117 134.191 117.545 136.161 116.37C138.13 115.195 140.464 114.607 143.164 114.607C145.863 114.607 148.182 115.195 150.119 116.37C152.057 117.545 153.502 119.086 154.455 120.991L148.214 122.897C147.674 121.976 146.959 121.277 146.07 120.801C145.181 120.292 144.196 120.038 143.116 120.038C141.909 120.038 140.798 120.356 139.781 120.991C138.797 121.595 138.019 122.468 137.447 123.611C136.875 124.723 136.589 126.025 136.589 127.518C136.589 128.979 136.875 130.281 137.447 131.425C138.05 132.536 138.844 133.426 139.829 134.093C140.814 134.728 141.909 135.045 143.116 135.045C143.878 135.045 144.593 134.918 145.26 134.664C145.959 134.41 146.578 134.061 147.118 133.616C147.658 133.171 148.055 132.663 148.309 132.092L154.55 133.997C153.978 135.236 153.137 136.348 152.025 137.332C150.945 138.317 149.659 139.095 148.166 139.667C146.705 140.206 145.054 140.476 143.211 140.476ZM158.478 140V115.036H164.862V124.564H174.962V115.036H181.346V140H174.962V129.9H164.862V140H158.478Z" fill="black"/>
</svg>
