<svg width="289" height="257" viewBox="0 0 289 257" fill="none" xmlns="http://www.w3.org/2000/svg">
<path d="M144 60.3594C181.911 60.3594 212.641 90.8697 212.641 128.5C212.641 166.13 181.911 196.641 144 196.641C106.089 196.641 75.3594 166.13 75.3594 128.5C75.3594 90.8697 106.089 60.3594 144 60.3594Z" stroke="black" stroke-width="0.719632"/>
<path d="M96.3882 132.505C95.9852 132.505 95.5726 132.457 95.1505 132.362C94.7475 132.266 94.2773 132.122 93.74 131.93L94.4884 128.879C94.7763 129.013 95.0449 129.109 95.2944 129.166C95.5631 129.224 95.8029 129.253 96.014 129.253C96.4938 129.253 96.916 129.08 97.2806 128.735C97.6644 128.389 97.9714 127.861 98.2017 127.151L98.6623 125.914L92.5598 110.917H96.5609L100.62 122.056L104.189 110.917H107.874L101.714 128.159C101.387 129.08 100.955 129.857 100.418 130.491C99.8808 131.143 99.2668 131.642 98.5759 131.987C97.8851 132.333 97.1558 132.505 96.3882 132.505ZM109.969 126V110.917H113.826V116.616H115.122L119.209 110.917H123.412L118.058 118.199L123.988 126H119.584L115.064 120.013H113.826V126H109.969ZM135.424 126.288C134.254 126.288 133.218 126.029 132.316 125.511C131.433 124.973 130.742 124.254 130.243 123.352V132.131H126.386V110.917H129.754V113.507C130.329 112.624 131.059 111.934 131.941 111.435C132.824 110.917 133.832 110.657 134.964 110.657C135.981 110.657 136.912 110.859 137.756 111.262C138.62 111.665 139.368 112.231 140.001 112.96C140.635 113.67 141.124 114.495 141.469 115.436C141.834 116.357 142.016 117.355 142.016 118.429C142.016 119.888 141.728 121.212 141.153 122.402C140.596 123.592 139.819 124.542 138.821 125.252C137.842 125.942 136.71 126.288 135.424 126.288ZM134.129 123.006C134.724 123.006 135.261 122.882 135.741 122.632C136.221 122.383 136.633 122.047 136.979 121.625C137.343 121.183 137.612 120.694 137.785 120.157C137.977 119.6 138.073 119.024 138.073 118.429C138.073 117.796 137.967 117.211 137.756 116.674C137.564 116.136 137.276 115.666 136.892 115.263C136.509 114.841 136.058 114.515 135.54 114.284C135.041 114.054 134.494 113.939 133.899 113.939C133.534 113.939 133.16 114.006 132.776 114.14C132.412 114.256 132.057 114.428 131.711 114.659C131.366 114.889 131.059 115.158 130.79 115.465C130.541 115.772 130.358 116.107 130.243 116.472V120.013C130.473 120.569 130.78 121.078 131.164 121.538C131.567 121.999 132.028 122.363 132.546 122.632C133.064 122.882 133.592 123.006 134.129 123.006ZM143.593 121.538C143.593 120.56 143.862 119.706 144.399 118.976C144.956 118.228 145.723 117.652 146.702 117.249C147.681 116.846 148.803 116.645 150.07 116.645C150.703 116.645 151.346 116.693 151.999 116.789C152.651 116.885 153.217 117.038 153.697 117.249V116.443C153.697 115.484 153.409 114.745 152.833 114.227C152.277 113.709 151.442 113.45 150.329 113.45C149.504 113.45 148.717 113.594 147.969 113.881C147.22 114.169 146.434 114.591 145.608 115.148L144.371 112.615C145.368 111.962 146.386 111.473 147.422 111.147C148.477 110.821 149.581 110.657 150.732 110.657C152.881 110.657 154.551 111.195 155.741 112.269C156.95 113.344 157.554 114.879 157.554 116.875V121.682C157.554 122.085 157.621 122.373 157.756 122.546C157.909 122.718 158.149 122.824 158.475 122.862V126C158.13 126.058 157.813 126.106 157.525 126.144C157.257 126.182 157.026 126.201 156.835 126.201C156.067 126.201 155.482 126.029 155.079 125.683C154.695 125.338 154.455 124.916 154.359 124.417L154.273 123.64C153.62 124.484 152.805 125.136 151.826 125.597C150.847 126.058 149.849 126.288 148.832 126.288C147.834 126.288 146.932 126.086 146.126 125.683C145.34 125.261 144.716 124.695 144.255 123.985C143.814 123.256 143.593 122.44 143.593 121.538ZM152.977 122.315C153.188 122.085 153.361 121.855 153.495 121.625C153.63 121.394 153.697 121.183 153.697 120.991V119.466C153.236 119.274 152.737 119.13 152.2 119.034C151.663 118.919 151.154 118.861 150.675 118.861C149.677 118.861 148.851 119.082 148.199 119.523C147.566 119.945 147.249 120.512 147.249 121.222C147.249 121.605 147.355 121.97 147.566 122.315C147.777 122.661 148.084 122.939 148.487 123.15C148.89 123.361 149.37 123.467 149.926 123.467C150.502 123.467 151.068 123.361 151.624 123.15C152.181 122.92 152.632 122.642 152.977 122.315ZM161.159 126V110.917H165.016V126H161.159ZM158.712 108.585V105.159H161.907V108.585H158.712ZM164.239 108.585V105.159H167.434V108.585H164.239ZM168.496 126V110.917H172.353V116.674H178.455V110.917H182.312V126H178.455V119.898H172.353V126H168.496ZM184.804 121.538C184.804 120.56 185.072 119.706 185.61 118.976C186.166 118.228 186.934 117.652 187.912 117.249C188.891 116.846 190.014 116.645 191.28 116.645C191.913 116.645 192.556 116.693 193.209 116.789C193.861 116.885 194.427 117.038 194.907 117.249V116.443C194.907 115.484 194.619 114.745 194.044 114.227C193.487 113.709 192.652 113.45 191.539 113.45C190.714 113.45 189.927 113.594 189.179 113.881C188.43 114.169 187.644 114.591 186.818 115.148L185.581 112.615C186.579 111.962 187.596 111.473 188.632 111.147C189.687 110.821 190.791 110.657 191.942 110.657C194.092 110.657 195.761 111.195 196.951 112.269C198.16 113.344 198.764 114.879 198.764 116.875V121.682C198.764 122.085 198.832 122.373 198.966 122.546C199.119 122.718 199.359 122.824 199.685 122.862V126C199.34 126.058 199.023 126.106 198.736 126.144C198.467 126.182 198.237 126.201 198.045 126.201C197.277 126.201 196.692 126.029 196.289 125.683C195.905 125.338 195.665 124.916 195.569 124.417L195.483 123.64C194.83 124.484 194.015 125.136 193.036 125.597C192.057 126.058 191.06 126.288 190.042 126.288C189.045 126.288 188.143 126.086 187.337 125.683C186.55 125.261 185.926 124.695 185.466 123.985C185.024 123.256 184.804 122.44 184.804 121.538ZM194.188 122.315C194.399 122.085 194.571 121.855 194.706 121.625C194.84 121.394 194.907 121.183 194.907 120.991V119.466C194.447 119.274 193.948 119.13 193.41 119.034C192.873 118.919 192.364 118.861 191.885 118.861C190.887 118.861 190.062 119.082 189.409 119.523C188.776 119.945 188.459 120.512 188.459 121.222C188.459 121.605 188.565 121.97 188.776 122.315C188.987 122.661 189.294 122.939 189.697 123.15C190.1 123.361 190.58 123.467 191.136 123.467C191.712 123.467 192.278 123.361 192.835 123.15C193.391 122.92 193.842 122.642 194.188 122.315Z" fill="black"/>
<path d="M114.208 158.23C112.596 158.23 111.252 157.942 110.178 157.367C109.103 156.791 108.259 155.995 107.645 154.978L110.753 153.567C111.08 154.066 111.502 154.459 112.02 154.747C112.557 155.016 113.219 155.15 114.006 155.15C114.908 155.15 115.599 154.978 116.079 154.632C116.578 154.268 116.827 153.797 116.827 153.222C116.827 152.684 116.626 152.253 116.223 151.926C115.82 151.6 115.225 151.437 114.438 151.437H112.884V149.048H114.467C114.831 149.048 115.138 148.981 115.388 148.846C115.656 148.693 115.858 148.491 115.992 148.242C116.146 147.992 116.223 147.704 116.223 147.378C116.223 146.898 116.031 146.505 115.647 146.198C115.282 145.891 114.697 145.737 113.891 145.737C113.219 145.737 112.663 145.862 112.221 146.112C111.799 146.361 111.444 146.735 111.156 147.234L108.249 145.68C108.786 144.74 109.554 144.001 110.552 143.463C111.569 142.926 112.749 142.657 114.092 142.657C115.148 142.657 116.088 142.821 116.913 143.147C117.758 143.473 118.42 143.943 118.9 144.557C119.379 145.171 119.619 145.939 119.619 146.86C119.619 147.513 119.456 148.146 119.13 148.76C118.823 149.374 118.314 149.825 117.604 150.113C118.525 150.381 119.216 150.842 119.677 151.495C120.157 152.147 120.396 152.915 120.396 153.797C120.396 154.757 120.128 155.572 119.59 156.244C119.053 156.897 118.324 157.396 117.403 157.741C116.482 158.067 115.417 158.23 114.208 158.23ZM122.069 153.538C122.069 152.56 122.337 151.706 122.875 150.976C123.431 150.228 124.199 149.652 125.178 149.249C126.156 148.846 127.279 148.645 128.545 148.645C129.179 148.645 129.822 148.693 130.474 148.789C131.126 148.885 131.693 149.038 132.172 149.249V148.443C132.172 147.484 131.884 146.745 131.309 146.227C130.752 145.709 129.917 145.45 128.804 145.45C127.979 145.45 127.192 145.594 126.444 145.881C125.696 146.169 124.909 146.591 124.084 147.148L122.846 144.615C123.844 143.962 124.861 143.473 125.897 143.147C126.953 142.821 128.056 142.657 129.207 142.657C131.357 142.657 133.026 143.195 134.216 144.269C135.425 145.344 136.03 146.879 136.03 148.875V153.682C136.03 154.085 136.097 154.373 136.231 154.546C136.385 154.718 136.624 154.824 136.951 154.862V158C136.605 158.058 136.289 158.106 136.001 158.144C135.732 158.182 135.502 158.201 135.31 158.201C134.542 158.201 133.957 158.029 133.554 157.683C133.17 157.338 132.93 156.916 132.834 156.417L132.748 155.64C132.096 156.484 131.28 157.136 130.301 157.597C129.323 158.058 128.325 158.288 127.308 158.288C126.31 158.288 125.408 158.086 124.602 157.683C123.815 157.261 123.191 156.695 122.731 155.985C122.289 155.256 122.069 154.44 122.069 153.538ZM131.453 154.315C131.664 154.085 131.837 153.855 131.971 153.625C132.105 153.394 132.172 153.183 132.172 152.991V151.466C131.712 151.274 131.213 151.13 130.675 151.034C130.138 150.919 129.63 150.861 129.15 150.861C128.152 150.861 127.327 151.082 126.674 151.523C126.041 151.945 125.724 152.512 125.724 153.222C125.724 153.605 125.83 153.97 126.041 154.315C126.252 154.661 126.559 154.939 126.962 155.15C127.365 155.361 127.845 155.467 128.401 155.467C128.977 155.467 129.543 155.361 130.1 155.15C130.656 154.92 131.107 154.642 131.453 154.315ZM148.673 158.288C147.502 158.288 146.466 158.029 145.564 157.511C144.681 156.973 143.99 156.254 143.491 155.352V164.131H139.634V142.917H143.002V145.507C143.578 144.624 144.307 143.934 145.19 143.435C146.072 142.917 147.08 142.657 148.212 142.657C149.229 142.657 150.16 142.859 151.004 143.262C151.868 143.665 152.616 144.231 153.249 144.96C153.883 145.67 154.372 146.495 154.717 147.436C155.082 148.357 155.264 149.355 155.264 150.429C155.264 151.888 154.977 153.212 154.401 154.402C153.844 155.592 153.067 156.542 152.069 157.252C151.091 157.942 149.958 158.288 148.673 158.288ZM147.377 155.006C147.972 155.006 148.509 154.882 148.989 154.632C149.469 154.383 149.882 154.047 150.227 153.625C150.592 153.183 150.86 152.694 151.033 152.157C151.225 151.6 151.321 151.024 151.321 150.429C151.321 149.796 151.215 149.211 151.004 148.674C150.812 148.136 150.524 147.666 150.141 147.263C149.757 146.841 149.306 146.515 148.788 146.284C148.289 146.054 147.742 145.939 147.147 145.939C146.782 145.939 146.408 146.006 146.024 146.14C145.66 146.256 145.305 146.428 144.959 146.659C144.614 146.889 144.307 147.158 144.038 147.465C143.789 147.772 143.606 148.107 143.491 148.472V152.013C143.722 152.569 144.029 153.078 144.412 153.538C144.815 153.999 145.276 154.363 145.794 154.632C146.312 154.882 146.84 155.006 147.377 155.006ZM156.842 153.538C156.842 152.56 157.11 151.706 157.648 150.976C158.204 150.228 158.972 149.652 159.95 149.249C160.929 148.846 162.052 148.645 163.318 148.645C163.951 148.645 164.594 148.693 165.247 148.789C165.899 148.885 166.465 149.038 166.945 149.249V148.443C166.945 147.484 166.657 146.745 166.082 146.227C165.525 145.709 164.69 145.45 163.577 145.45C162.752 145.45 161.965 145.594 161.217 145.881C160.468 146.169 159.682 146.591 158.856 147.148L157.619 144.615C158.617 143.962 159.634 143.473 160.67 143.147C161.725 142.821 162.829 142.657 163.98 142.657C166.13 142.657 167.799 143.195 168.989 144.269C170.198 145.344 170.802 146.879 170.802 148.875V153.682C170.802 154.085 170.87 154.373 171.004 154.546C171.157 154.718 171.397 154.824 171.724 154.862V158C171.378 158.058 171.061 158.106 170.774 158.144C170.505 158.182 170.275 158.201 170.083 158.201C169.315 158.201 168.73 158.029 168.327 157.683C167.943 157.338 167.703 156.916 167.607 156.417L167.521 155.64C166.868 156.484 166.053 157.136 165.074 157.597C164.095 158.058 163.098 158.288 162.08 158.288C161.083 158.288 160.181 158.086 159.375 157.683C158.588 157.261 157.964 156.695 157.504 155.985C157.062 155.256 156.842 154.44 156.842 153.538ZM166.226 154.315C166.437 154.085 166.609 153.855 166.744 153.625C166.878 153.394 166.945 153.183 166.945 152.991V151.466C166.485 151.274 165.986 151.13 165.448 151.034C164.911 150.919 164.402 150.861 163.923 150.861C162.925 150.861 162.1 151.082 161.447 151.523C160.814 151.945 160.497 152.512 160.497 153.222C160.497 153.605 160.603 153.97 160.814 154.315C161.025 154.661 161.332 154.939 161.735 155.15C162.138 155.361 162.618 155.467 163.174 155.467C163.75 155.467 164.316 155.361 164.873 155.15C165.429 154.92 165.88 154.642 166.226 154.315ZM179.79 158.23C178.178 158.23 176.834 157.942 175.76 157.367C174.685 156.791 173.841 155.995 173.227 154.978L176.335 153.567C176.662 154.066 177.084 154.459 177.602 154.747C178.139 155.016 178.801 155.15 179.588 155.15C180.49 155.15 181.181 154.978 181.661 154.632C182.16 154.268 182.409 153.797 182.409 153.222C182.409 152.684 182.208 152.253 181.805 151.926C181.402 151.6 180.807 151.437 180.02 151.437H178.466V149.048H180.049C180.413 149.048 180.72 148.981 180.97 148.846C181.239 148.693 181.44 148.491 181.574 148.242C181.728 147.992 181.805 147.704 181.805 147.378C181.805 146.898 181.613 146.505 181.229 146.198C180.864 145.891 180.279 145.737 179.473 145.737C178.801 145.737 178.245 145.862 177.803 146.112C177.381 146.361 177.026 146.735 176.738 147.234L173.831 145.68C174.368 144.74 175.136 144.001 176.134 143.463C177.151 142.926 178.331 142.657 179.675 142.657C180.73 142.657 181.67 142.821 182.495 143.147C183.34 143.473 184.002 143.943 184.482 144.557C184.961 145.171 185.201 145.939 185.201 146.86C185.201 147.513 185.038 148.146 184.712 148.76C184.405 149.374 183.896 149.825 183.186 150.113C184.107 150.381 184.798 150.842 185.259 151.495C185.739 152.147 185.979 152.915 185.979 153.797C185.979 154.757 185.71 155.572 185.173 156.244C184.635 156.897 183.906 157.396 182.985 157.741C182.064 158.067 180.999 158.23 179.79 158.23Z" fill="black"/>
</svg>
