<svg width="289" height="257" viewBox="0 0 289 257" fill="none" xmlns="http://www.w3.org/2000/svg">
<circle cx="144" cy="126" r="68.6402" stroke="black" stroke-width="0.719632"/>
<path d="M122.681 105.582H127.467L120.686 114.025L127.999 123H122.947L117.562 116.285H116.398V123H112.011V105.582H116.398V112.496H117.395L122.681 105.582ZM134.35 116.651L142.594 105.582H145.884V123H141.463V112.23L133.32 123H129.929V105.582H134.35V116.651ZM147.262 102.923V98.9674H150.952V102.923H147.262ZM153.644 102.923V98.9674H157.334V102.923H153.644ZM150.087 123V105.582H154.542V123H150.087ZM169.027 105.582C169.67 105.582 170.257 105.704 170.789 105.948C171.321 106.169 171.775 106.48 172.152 106.879C172.551 107.277 172.85 107.743 173.049 108.275C173.271 108.806 173.382 109.372 173.382 109.97C173.382 110.723 173.182 111.488 172.783 112.263C172.384 113.017 171.731 113.582 170.822 113.959C171.842 114.247 172.639 114.745 173.215 115.454C173.814 116.141 174.113 117.083 174.113 118.28C174.113 119.875 173.559 121.061 172.451 121.837C171.343 122.612 169.814 123 167.864 123H158.723V105.582H169.027ZM166.933 112.862C167.554 112.862 168.052 112.684 168.429 112.33C168.806 111.975 168.994 111.466 168.994 110.801C168.994 110.247 168.828 109.782 168.495 109.405C168.185 109.006 167.709 108.806 167.066 108.806H163.144V112.862H166.933ZM167.531 119.776C168.174 119.776 168.684 119.565 169.06 119.144C169.459 118.723 169.659 118.213 169.659 117.615C169.659 116.995 169.47 116.485 169.094 116.086C168.717 115.665 168.207 115.454 167.565 115.454H163.144V119.776H167.531ZM107.106 146.199C106.283 146.199 105.567 146.02 104.956 145.662C104.346 145.29 103.868 144.792 103.523 144.169V150.24H100.855V135.569H103.185V137.361C103.569 136.75 104.067 136.272 104.678 135.927C105.288 135.569 105.991 135.39 106.788 135.39C107.491 135.39 108.141 135.536 108.738 135.828C109.336 136.107 109.847 136.491 110.271 136.982C110.709 137.46 111.048 138.031 111.286 138.694C111.539 139.345 111.665 140.035 111.665 140.765C111.665 141.521 111.552 142.231 111.326 142.895C111.101 143.558 110.782 144.135 110.371 144.626C109.973 145.117 109.495 145.502 108.937 145.781C108.38 146.06 107.77 146.199 107.106 146.199ZM106.21 143.93C106.608 143.93 106.973 143.843 107.305 143.671C107.65 143.498 107.942 143.266 108.181 142.974C108.42 142.682 108.606 142.344 108.738 141.959C108.871 141.574 108.937 141.176 108.937 140.765C108.937 140.327 108.864 139.922 108.719 139.55C108.573 139.165 108.367 138.834 108.101 138.555C107.849 138.276 107.544 138.057 107.186 137.898C106.841 137.739 106.462 137.659 106.051 137.659C105.799 137.659 105.54 137.706 105.275 137.799C105.009 137.878 104.764 137.998 104.538 138.157C104.313 138.316 104.107 138.502 103.921 138.714C103.749 138.927 103.616 139.159 103.523 139.411V141.859C103.762 142.457 104.127 142.954 104.618 143.352C105.109 143.737 105.64 143.93 106.21 143.93ZM118.289 146.199C117.453 146.199 116.696 146.06 116.019 145.781C115.343 145.489 114.765 145.098 114.288 144.607C113.81 144.116 113.438 143.545 113.173 142.895C112.921 142.244 112.795 141.561 112.795 140.844C112.795 140.101 112.921 139.404 113.173 138.754C113.425 138.091 113.79 137.513 114.268 137.022C114.745 136.518 115.323 136.12 116 135.828C116.69 135.536 117.459 135.39 118.309 135.39C119.158 135.39 119.915 135.536 120.578 135.828C121.255 136.12 121.826 136.511 122.29 137.002C122.768 137.493 123.126 138.064 123.365 138.714C123.617 139.365 123.743 140.041 123.743 140.745C123.743 140.917 123.737 141.083 123.723 141.242C123.723 141.402 123.71 141.534 123.683 141.64H115.621C115.661 142.052 115.761 142.417 115.92 142.735C116.079 143.054 116.285 143.326 116.537 143.552C116.789 143.777 117.075 143.95 117.393 144.069C117.712 144.189 118.043 144.248 118.388 144.248C118.919 144.248 119.417 144.122 119.881 143.87C120.359 143.605 120.684 143.26 120.857 142.835L123.146 143.472C122.761 144.268 122.144 144.925 121.295 145.443C120.459 145.947 119.457 146.199 118.289 146.199ZM120.996 139.909C120.93 139.126 120.638 138.502 120.12 138.037C119.616 137.56 118.999 137.321 118.269 137.321C117.911 137.321 117.572 137.387 117.254 137.52C116.948 137.639 116.676 137.812 116.438 138.037C116.199 138.263 116 138.535 115.84 138.854C115.694 139.172 115.608 139.524 115.582 139.909H120.996ZM128.215 146.199C127.711 146.199 127.239 146.119 126.801 145.96C126.364 145.788 125.985 145.555 125.667 145.263C125.348 144.958 125.096 144.607 124.91 144.208C124.738 143.81 124.652 143.372 124.652 142.895C124.652 142.404 124.758 141.952 124.97 141.541C125.196 141.116 125.501 140.758 125.886 140.466C126.284 140.174 126.755 139.948 127.299 139.789C127.843 139.617 128.44 139.53 129.091 139.53C129.555 139.53 130.006 139.57 130.444 139.65C130.896 139.729 131.294 139.842 131.639 139.988V139.391C131.639 138.701 131.44 138.17 131.042 137.799C130.657 137.427 130.079 137.241 129.31 137.241C128.752 137.241 128.208 137.341 127.677 137.54C127.146 137.739 126.602 138.031 126.045 138.416L125.229 136.724C126.569 135.834 128.016 135.39 129.568 135.39C131.068 135.39 132.229 135.761 133.052 136.505C133.888 137.235 134.306 138.296 134.306 139.69V142.934C134.306 143.213 134.353 143.412 134.446 143.532C134.552 143.651 134.718 143.717 134.943 143.731V146C134.492 146.093 134.1 146.139 133.769 146.139C133.264 146.139 132.873 146.027 132.594 145.801C132.329 145.575 132.163 145.277 132.097 144.905L132.037 144.328C131.572 144.938 131.008 145.403 130.345 145.721C129.681 146.04 128.971 146.199 128.215 146.199ZM128.971 144.248C129.422 144.248 129.847 144.169 130.245 144.009C130.657 143.85 130.975 143.638 131.201 143.372C131.493 143.147 131.639 142.895 131.639 142.616V141.422C131.32 141.302 130.975 141.209 130.604 141.143C130.232 141.063 129.874 141.023 129.529 141.023C128.839 141.023 128.275 141.183 127.837 141.501C127.399 141.806 127.18 142.198 127.18 142.676C127.18 143.127 127.352 143.505 127.697 143.81C128.042 144.102 128.467 144.248 128.971 144.248ZM135.783 143.731C136.168 143.704 136.479 143.625 136.718 143.492C136.97 143.359 137.176 143.114 137.335 142.755C137.508 142.397 137.647 141.906 137.753 141.282C137.873 140.645 137.992 139.816 138.112 138.794L138.47 135.569H145.776V146H143.128V137.799H140.799L140.6 139.371C140.441 140.685 140.248 141.773 140.023 142.636C139.797 143.485 139.505 144.162 139.147 144.666C138.802 145.171 138.37 145.529 137.853 145.741C137.335 145.94 136.698 146.053 135.942 146.08L135.783 143.731ZM148.289 135.569H150.936V138.874H152.967C153.524 138.874 154.042 138.953 154.519 139.112C155.01 139.258 155.435 139.484 155.793 139.789C156.152 140.081 156.43 140.453 156.629 140.904C156.842 141.342 156.948 141.846 156.948 142.417C156.948 143.001 156.848 143.518 156.649 143.97C156.45 144.407 156.178 144.779 155.833 145.084C155.488 145.39 155.077 145.622 154.599 145.781C154.135 145.927 153.624 146 153.066 146H148.289V135.569ZM152.768 143.91C153.232 143.91 153.597 143.79 153.862 143.552C154.128 143.299 154.261 142.934 154.261 142.457C154.261 141.979 154.121 141.614 153.843 141.362C153.564 141.096 153.212 140.964 152.788 140.964H150.936V143.91H152.768ZM161.239 139.511H165.38V135.569H168.027V146H165.38V141.78H161.239V146H158.592V135.569H161.239V139.511ZM173.156 142.198L178.093 135.569H180.064V146H177.416V139.55L172.539 146H170.508V135.569H173.156V142.198ZM190.842 131.468C190.815 132.304 190.503 132.961 189.906 133.439C189.309 133.904 188.526 134.136 187.557 134.136C186.588 134.136 185.805 133.904 185.208 133.439C184.611 132.961 184.299 132.304 184.273 131.468H185.746C185.759 131.973 185.918 132.344 186.223 132.583C186.542 132.822 186.987 132.941 187.557 132.941C188.698 132.941 189.309 132.45 189.389 131.468H190.842ZM185.228 142.198L190.165 135.569H192.136V146H189.488V139.55L184.611 146H182.581V135.569H185.228V142.198Z" fill="black"/>
</svg>
