<svg width="46" height="46" viewBox="0 0 46 46" fill="none" xmlns="http://www.w3.org/2000/svg">
<path d="M22.9974 42.1663C18.5571 41.0483 14.8912 38.5004 11.9996 34.5227C9.10795 30.5449 7.66279 26.129 7.66406 21.2747V9.58301L22.9974 3.83301L38.3307 9.58301V20.4601C37.7238 20.2045 37.1009 19.9726 36.462 19.7643C35.8231 19.5561 35.1682 19.4053 34.4974 19.312V12.2663L22.9974 7.95384L11.4974 12.2663V21.2747C11.4974 22.7761 11.6974 24.2775 12.0973 25.7788C12.4973 27.2802 13.0563 28.7101 13.7744 30.0683C14.4925 31.4266 15.3627 32.6801 16.3849 33.8288C17.4071 34.9776 18.5411 35.9359 19.787 36.7038C20.1384 37.7261 20.6016 38.7004 21.1766 39.6268C21.7516 40.5531 22.4064 41.3837 23.1411 42.1184C23.1092 42.1184 23.0856 42.1267 23.0702 42.1433C23.0549 42.16 23.0306 42.1676 22.9974 42.1663ZM32.5807 42.1663C29.9293 42.1663 27.6696 41.2316 25.8015 39.3623C23.9334 37.4929 22.9987 35.2331 22.9974 32.583C22.9961 29.9329 23.9308 27.6731 25.8015 25.8038C27.6721 23.9344 29.9319 22.9997 32.5807 22.9997C35.2296 22.9997 37.49 23.9344 39.3619 25.8038C41.2338 27.6731 42.1679 29.9329 42.1641 32.583C42.1602 35.2331 41.2255 37.4935 39.36 39.3642C37.4944 41.2348 35.2347 42.1689 32.5807 42.1663ZM31.6224 38.333H33.5391V33.5413H38.3307V31.6247H33.5391V26.833H31.6224V31.6247H26.8307V33.5413H31.6224V38.333Z" fill="black"/>
</svg>
