<svg width="46" height="46" viewBox="0 0 46 46" fill="none" xmlns="http://www.w3.org/2000/svg">
<g clip-path="url(#clip0_2099_1848)">
<path d="M23 44.0836C18.2403 44.0836 14.175 43.4051 10.8043 42.0481C7.43347 40.6911 5.74872 38.814 5.75 36.4169C5.75 35.3947 6.06945 34.4766 6.70833 33.6627C7.34722 32.8487 8.24167 32.1217 9.39167 31.4815L12.5063 34.2607C11.7396 34.5162 11.0611 34.844 10.4708 35.2439C9.88042 35.6439 9.58461 36.0349 9.58333 36.4169C9.58333 37.2475 10.8771 38.094 13.4646 38.9565C16.0521 39.819 19.2306 40.2503 23 40.2503C26.7694 40.2503 29.9479 39.819 32.5354 38.9565C35.1229 38.094 36.4167 37.2475 36.4167 36.4169C36.4167 36.0336 36.1215 35.6426 35.5312 35.2439C34.9408 34.8453 34.2617 34.5175 33.4938 34.2607L36.6083 31.4815C37.7583 32.1204 38.6528 32.8475 39.2917 33.6627C39.9306 34.4779 40.25 35.396 40.25 36.4169C40.25 38.8128 38.5653 40.6898 35.1958 42.0481C31.8263 43.4064 27.761 44.0849 23 44.0836ZM23 38.3815L5.75 23.0961V15.8607L23 -0.191406L40.25 15.8607V23.0961L23 38.3815ZM22.8083 28.6065L35.8417 17.0586L23 4.98359L9.96667 17.2503L22.8083 28.6065ZM17.25 19.6461C17.9208 19.6461 18.4882 19.4142 18.952 18.9503C19.4158 18.4865 19.6471 17.9198 19.6458 17.2503C19.6446 16.5807 19.4126 16.0134 18.9501 15.5483C18.4875 15.0832 17.9208 14.8519 17.25 14.8544C16.5792 14.857 16.0118 15.0889 15.548 15.5502C15.0842 16.0115 14.8529 16.5782 14.8542 17.2503C14.8554 17.9224 15.0874 18.4897 15.5499 18.9523C16.0125 19.4148 16.5792 19.6461 17.25 19.6461ZM19.6458 22.2336C21.0194 22.9044 22.4652 23.1204 23.9832 22.8814C25.5012 22.6425 26.8346 22.0113 27.9833 20.9878C29.0694 20.0614 29.7805 18.8954 30.1166 17.4898C30.4526 16.0843 30.2846 14.7586 29.6125 13.5128L19.6458 22.2336ZM23 13.8961C23.6708 13.8961 24.2382 13.6642 24.702 13.2003C25.1658 12.7365 25.3971 12.1698 25.3958 11.5003C25.3946 10.8307 25.1626 10.2634 24.7001 9.79826C24.2375 9.33315 23.6708 9.10187 23 9.10443C22.3292 9.10698 21.7618 9.3389 21.298 9.80018C20.8342 10.2615 20.6029 10.8281 20.6042 11.5003C20.6054 12.1724 20.8374 12.7397 21.2999 13.2023C21.7625 13.6648 22.3292 13.8961 23 13.8961Z" fill="black"/>
</g>
<defs>
<clipPath id="clip0_2099_1848">
<rect width="46" height="46" fill="white"/>
</clipPath>
</defs>
</svg>
