<svg width="46" height="46" viewBox="0 0 46 46" fill="none" xmlns="http://www.w3.org/2000/svg">
<path d="M9.58333 36.4167V9.58333V18.1604V17.25V36.4167ZM13.4167 24.9167H24.0062C24.0701 24.2139 24.2299 23.5431 24.4854 22.9042C24.741 22.2653 25.0604 21.6583 25.4437 21.0833H13.4167V24.9167ZM13.4167 32.5833H20.9396C21.4826 31.9444 22.1056 31.4257 22.8083 31.027C23.5111 30.6283 24.2458 30.3006 25.0125 30.0437C24.8847 29.8521 24.7729 29.6444 24.6771 29.4208C24.5812 29.1972 24.5014 28.9736 24.4375 28.75H13.4167V32.5833ZM5.75 40.25V5.75H40.25V21.9458C39.8028 21.1153 39.2597 20.3806 38.6208 19.7417C37.9819 19.1028 37.2472 18.5757 36.4167 18.1604V9.58333H9.58333V36.4167H19.2625C19.2306 36.6083 19.2063 36.8 19.1897 36.9917C19.1731 37.1833 19.1654 37.375 19.1667 37.5667V40.25H5.75ZM32.5833 30.6667C31.2417 30.6667 30.1076 30.2035 29.1812 29.2771C28.2549 28.3507 27.7917 27.2167 27.7917 25.875C27.7917 24.5333 28.2549 23.3993 29.1812 22.4729C30.1076 21.5465 31.2417 21.0833 32.5833 21.0833C33.925 21.0833 35.059 21.5465 35.9854 22.4729C36.9118 23.3993 37.375 24.5333 37.375 25.875C37.375 27.2167 36.9118 28.3507 35.9854 29.2771C35.059 30.2035 33.925 30.6667 32.5833 30.6667ZM23 40.25V37.5667C23 36.8 23.2 36.0896 23.5999 35.4353C23.9999 34.7811 24.5666 34.3096 25.3 34.0208C26.45 33.5417 27.6402 33.1826 28.8707 32.9437C30.1012 32.7047 31.3388 32.5846 32.5833 32.5833C33.8279 32.5821 35.0661 32.7022 36.2978 32.9437C37.5296 33.1852 38.7192 33.5442 39.8667 34.0208C40.6014 34.3083 41.1687 34.7798 41.5687 35.4353C41.9686 36.0908 42.1679 36.8013 42.1667 37.5667V40.25H23ZM13.4167 17.25H32.5833V13.4167H13.4167V17.25Z" fill="black"/>
</svg>
