<svg width="269" height="90" viewBox="0 0 269 90" fill="none" xmlns="http://www.w3.org/2000/svg">
<path d="M26.5597 89.56C21.8797 89.56 18.2397 88.6933 15.6397 86.96C13.0397 85.14 11.2197 82.8433 10.1797 80.07C9.13969 77.21 8.61969 74.2633 8.61969 71.23V34.18H0.429688V19.62H9.00969L11.9997 0.380005H26.4297V19.62H38.2597V34.18H26.4297V69.41C26.4297 73.1367 28.293 75 32.0197 75H38.2597V87.48C36.873 88 35.053 88.4767 32.7997 88.91C30.5464 89.3433 28.4664 89.56 26.5597 89.56ZM54.9007 37.43V19.62H72.8407V37.43H54.9007ZM54.9007 88V70.19H72.8407V88H54.9007ZM94.8117 88V19.62H110.022L111.322 28.59H112.232C114.225 25.8167 116.825 23.39 120.032 21.31C123.239 19.1433 127.139 18.06 131.732 18.06C135.719 18.06 139.272 18.8833 142.392 20.53C145.512 22.1767 147.939 24.8633 149.672 28.59H150.712C152.792 25.8167 155.479 23.39 158.772 21.31C162.152 19.1433 166.225 18.06 170.992 18.06C175.065 18.06 178.705 18.84 181.912 20.4C185.119 21.96 187.632 24.5167 189.452 28.07C191.359 31.5367 192.312 36.2167 192.312 42.11V88H174.502V45.88C174.502 41.46 173.592 38.34 171.772 36.52C169.952 34.7 167.525 33.79 164.492 33.79C160.939 33.79 158.035 35.22 155.782 38.08C153.615 40.94 152.532 44.4067 152.532 48.48V88H134.722V45.88C134.722 41.46 133.812 38.34 131.992 36.52C130.172 34.7 127.745 33.79 124.712 33.79C121.159 33.79 118.255 35.22 116.002 38.08C113.749 40.94 112.622 44.4067 112.622 48.48V88H94.8117ZM238.549 89.56C227.629 89.56 219.439 86.7 213.979 80.98C208.519 75.1733 205.789 66.1167 205.789 53.81C205.789 41.5033 208.519 32.49 213.979 26.77C219.439 20.9633 227.629 18.06 238.549 18.06C248.603 18.06 256.143 20.9633 261.169 26.77C266.283 32.49 268.839 41.5033 268.839 53.81V57.97H223.859C223.946 63.7767 225.073 68.1967 227.239 71.23C229.493 74.2633 233.349 75.78 238.809 75.78C241.236 75.78 243.359 75.3467 245.179 74.48C247.086 73.5267 248.559 72.1833 249.599 70.45C250.726 68.63 251.289 66.42 251.289 63.82H268.839C268.839 69.7133 267.496 74.5667 264.809 78.38C262.209 82.1933 258.613 85.01 254.019 86.83C249.426 88.65 244.269 89.56 238.549 89.56ZM224.119 46.14H250.379C250.379 41.1133 249.296 37.5167 247.129 35.35C244.963 33.0967 242.103 31.97 238.549 31.97C234.043 31.97 230.619 33.1833 228.279 35.61C226.026 37.95 224.639 41.46 224.119 46.14Z" fill="black"/>
</svg>
