<svg width="30" height="30" viewBox="0 0 30 30" fill="none" xmlns="http://www.w3.org/2000/svg">
<path d="M14.7495 10.3236C13.576 10.3236 12.4507 10.7897 11.6209 11.6195C10.7912 12.4492 10.3251 13.5746 10.3251 14.748C10.3251 15.9214 10.7912 17.0468 11.6209 17.8765C12.4507 18.7062 13.576 19.1724 14.7495 19.1724C15.9229 19.1724 17.0482 18.7062 17.878 17.8765C18.7077 17.0468 19.1739 15.9214 19.1739 14.748C19.1739 13.5746 18.7077 12.4492 17.878 11.6195C17.0482 10.7897 15.9229 10.3236 14.7495 10.3236ZM14.7495 7.37399C16.7052 7.37399 18.5808 8.15089 19.9637 9.53378C21.3466 10.9167 22.1235 12.7923 22.1235 14.748C22.1235 16.7037 21.3466 18.5793 19.9637 19.9622C18.5808 21.3451 16.7052 22.122 14.7495 22.122C12.7938 22.122 10.9182 21.3451 9.53526 19.9622C8.15237 18.5793 7.37547 16.7037 7.37547 14.748C7.37547 12.7923 8.15237 10.9167 9.53526 9.53378C10.9182 8.15089 12.7938 7.37399 14.7495 7.37399ZM24.3356 7.00529C24.3356 7.49422 24.1414 7.96312 23.7957 8.30884C23.45 8.65457 22.9811 8.84879 22.4921 8.84879C22.0032 8.84879 21.5343 8.65457 21.1886 8.30884C20.8429 7.96312 20.6487 7.49422 20.6487 7.00529C20.6487 6.51637 20.8429 6.04747 21.1886 5.70174C21.5343 5.35602 22.0032 5.16179 22.4921 5.16179C22.9811 5.16179 23.45 5.35602 23.7957 5.70174C24.1414 6.04747 24.3356 6.51637 24.3356 7.00529ZM14.7495 2.9496C11.1008 2.9496 10.505 2.95992 8.8075 3.03514C7.65125 3.0897 6.87551 3.24456 6.15581 3.52477C5.55384 3.74653 5.00948 4.10088 4.56303 4.56155C4.10182 5.00785 3.74696 5.55223 3.52477 6.15433C3.24456 6.87699 3.0897 7.65125 3.03661 8.80602C2.95992 10.4342 2.9496 11.0035 2.9496 14.748C2.9496 18.3981 2.95992 18.9925 3.03514 20.6899C3.0897 21.8447 3.24456 22.6219 3.52329 23.3402C3.77401 23.9817 4.06897 24.4433 4.5586 24.9329C5.05561 25.4285 5.51722 25.7249 6.15138 25.9697C6.87994 26.2514 7.65568 26.4077 8.80602 26.4608C10.4342 26.5375 11.0035 26.5464 14.748 26.5464C18.3981 26.5464 18.9925 26.536 20.6899 26.4608C21.8432 26.4063 22.619 26.2514 23.3402 25.9727C23.9421 25.7509 24.4865 25.3966 24.9329 24.9359C25.43 24.4404 25.7264 23.9787 25.9712 23.3431C26.2514 22.6175 26.4077 21.8418 26.4608 20.6885C26.5375 19.0618 26.5464 18.491 26.5464 14.748C26.5464 11.0993 26.536 10.5035 26.4608 8.80602C26.4063 7.65273 26.2499 6.87404 25.9712 6.15433C25.7494 5.55237 25.3951 5.008 24.9344 4.56155C24.4881 4.10034 23.9437 3.74549 23.3416 3.52329C22.619 3.24308 21.8432 3.08823 20.6899 3.03514C19.0632 2.95845 18.494 2.9496 14.748 2.9496M14.748 0C18.755 0 19.255 0.0147479 20.8286 0.0884878C22.3978 0.162228 23.4685 0.408519 24.4079 0.774269C25.3813 1.14887 26.2013 1.6562 27.0213 2.47471C27.7715 3.21172 28.3518 4.10359 28.7217 5.08805C29.086 6.0275 29.3337 7.0982 29.4075 8.66887C29.4768 10.241 29.496 10.741 29.496 14.748C29.496 18.755 29.4812 19.255 29.4075 20.8271C29.3337 22.3992 29.086 23.467 28.7217 24.4079C28.3518 25.3924 27.7715 26.2843 27.0213 27.0213C26.2843 27.7715 25.3924 28.3518 24.4079 28.7217C23.4685 29.086 22.3978 29.3337 20.8286 29.4075C19.255 29.4768 18.755 29.496 14.748 29.496C10.741 29.496 10.241 29.4812 8.66739 29.4075C7.0982 29.3337 6.02898 29.086 5.08805 28.7217C4.10359 28.3518 3.21172 27.7715 2.47471 27.0213C1.72449 26.2843 1.14417 25.3924 0.774269 24.4079C0.408519 23.4685 0.162228 22.3978 0.0884878 20.8271C0.0176975 19.255 0 18.755 0 14.748C0 10.741 0.0147479 10.241 0.0884878 8.66887C0.162228 7.09673 0.408519 6.02898 0.774269 5.08805C1.14417 4.10359 1.72449 3.21172 2.47471 2.47471C3.21172 1.72449 4.10359 1.14417 5.08805 0.774269C6.0275 0.408519 7.09673 0.162228 8.66739 0.0884878C10.2425 0.0191723 10.7424 0 14.7495 0" fill="#020202"/>
</svg>
