<svg width="100" height="100" viewBox="0 0 100 100" fill="none" xmlns="http://www.w3.org/2000/svg">
<path fill-rule="evenodd" clip-rule="evenodd" d="M31.5008 22.6001L38.0359 16.065L47.8593 25.8884L60.9479 12.7998L67.4738 19.3303L56.0779 30.7262H77.7504C80.2037 30.7262 82.5564 31.7007 84.2911 33.4354C86.0258 35.1701 87.0003 37.5229 87.0003 39.9761V72.3508C87.0003 74.804 86.0258 77.1568 84.2911 78.8915C82.5564 80.6262 80.2037 81.6007 77.7504 81.6007H22.2509C19.7977 81.6007 17.4449 80.6262 15.7102 78.8915C13.9755 77.1568 13.001 74.804 13.001 72.3508V39.9761C13.001 37.5229 13.9755 35.1701 15.7102 33.4354C17.4449 31.7007 19.7977 30.7262 22.2509 30.7262H39.6269L31.5008 22.6001ZM77.7504 39.9761H22.2509V72.3508H77.7504V39.9761Z" fill="black"/>
<path d="M31.501 86.2266H68.5007V90.8515H31.501V86.2266Z" fill="black"/>
</svg>
