<svg width="100" height="100" viewBox="0 0 100 100" fill="none" xmlns="http://www.w3.org/2000/svg">
<path d="M25.0003 25.0003H41.667V16.667H16.667V41.667H25.0003V25.0003ZM41.667 75.0003H25.0003V58.3337H16.667V83.3337H41.667V75.0003ZM58.3337 25.0003H75.0003V41.667H83.3337V16.667H58.3337V25.0003ZM58.3337 75.0003H75.0003V58.3337H83.3337V83.3337H58.3337V75.0003ZM50.0003 35.417C48.0852 35.417 46.1889 35.7942 44.4195 36.5271C42.6502 37.26 41.0425 38.3342 39.6884 39.6884C38.3342 41.0425 37.26 42.6502 36.5271 44.4195C35.7942 46.1889 35.417 48.0852 35.417 50.0003C35.417 51.9154 35.7942 53.8118 36.5271 55.5811C37.26 57.3505 38.3342 58.9581 39.6884 60.3123C41.0425 61.6665 42.6502 62.7407 44.4195 63.4736C46.1889 64.2064 48.0852 64.5837 50.0003 64.5837C53.8681 64.5837 57.5774 63.0472 60.3123 60.3123C63.0472 57.5774 64.5837 53.8681 64.5837 50.0003C64.5837 46.1326 63.0472 42.4233 60.3123 39.6884C57.5774 36.9534 53.8681 35.417 50.0003 35.417Z" fill="black"/>
</svg>
