<svg width="289" height="257" viewBox="0 0 289 257" fill="none" xmlns="http://www.w3.org/2000/svg">
<path d="M144 60.3594C181.911 60.3594 212.641 90.8697 212.641 128.5C212.641 166.13 181.911 196.641 144 196.641C106.089 196.641 75.3594 166.13 75.3594 128.5C75.3594 90.8697 106.089 60.3594 144 60.3594Z" stroke="black" stroke-width="0.719632"/>
<path d="M94.9306 119.358V109.917H98.7878V118.523C98.7878 119.675 98.9989 120.548 99.4211 121.143C99.8433 121.718 100.467 122.006 101.292 122.006C101.791 122.006 102.28 121.91 102.76 121.718C103.259 121.507 103.71 121.2 104.113 120.797C104.535 120.394 104.89 119.886 105.178 119.272V109.917H109.035V120.682C109.035 121.085 109.103 121.373 109.237 121.546C109.39 121.718 109.63 121.824 109.957 121.862V125C109.573 125.058 109.246 125.096 108.978 125.115C108.728 125.154 108.498 125.173 108.287 125.173C107.596 125.173 107.03 125.019 106.589 124.712C106.166 124.386 105.917 123.945 105.84 123.388L105.754 122.179C105.082 123.196 104.219 123.973 103.163 124.511C102.108 125.029 100.947 125.288 99.6802 125.288C98.1258 125.288 96.9456 124.789 96.1396 123.791C95.3336 122.774 94.9306 121.296 94.9306 119.358ZM123.174 125L118.77 118.495L116.726 120.509V125H112.869V103.987H116.726V116.71L122.799 109.945H126.887L121.274 116.336L127.29 125H123.174ZM137.901 113.256C136.73 113.256 135.684 113.486 134.763 113.946C133.842 114.388 133.18 115.031 132.777 115.875V125H128.92V109.917H132.46V113.14C132.998 112.104 133.679 111.289 134.504 110.694C135.329 110.099 136.202 109.773 137.124 109.715C137.335 109.715 137.498 109.715 137.613 109.715C137.728 109.715 137.824 109.725 137.901 109.744V113.256ZM138.931 120.538C138.931 119.56 139.2 118.706 139.737 117.976C140.293 117.228 141.061 116.652 142.04 116.249C143.018 115.846 144.141 115.645 145.408 115.645C146.041 115.645 146.684 115.693 147.336 115.789C147.989 115.885 148.555 116.038 149.035 116.249V115.443C149.035 114.484 148.747 113.745 148.171 113.227C147.614 112.709 146.78 112.45 145.667 112.45C144.841 112.45 144.055 112.594 143.306 112.881C142.558 113.169 141.771 113.591 140.946 114.148L139.708 111.615C140.706 110.962 141.723 110.473 142.759 110.147C143.815 109.821 144.918 109.657 146.07 109.657C148.219 109.657 149.889 110.195 151.078 111.269C152.287 112.344 152.892 113.879 152.892 115.875V120.682C152.892 121.085 152.959 121.373 153.093 121.546C153.247 121.718 153.487 121.824 153.813 121.862V125C153.467 125.058 153.151 125.106 152.863 125.144C152.594 125.182 152.364 125.201 152.172 125.201C151.405 125.201 150.819 125.029 150.416 124.683C150.032 124.338 149.793 123.916 149.697 123.417L149.61 122.64C148.958 123.484 148.142 124.136 147.164 124.597C146.185 125.058 145.187 125.288 144.17 125.288C143.172 125.288 142.27 125.086 141.464 124.683C140.677 124.261 140.054 123.695 139.593 122.985C139.152 122.256 138.931 121.44 138.931 120.538ZM148.315 121.315C148.526 121.085 148.699 120.855 148.833 120.625C148.967 120.394 149.035 120.183 149.035 119.991V118.466C148.574 118.274 148.075 118.13 147.538 118.034C147 117.919 146.492 117.861 146.012 117.861C145.014 117.861 144.189 118.082 143.537 118.523C142.903 118.945 142.587 119.512 142.587 120.222C142.587 120.605 142.692 120.97 142.903 121.315C143.114 121.661 143.421 121.939 143.824 122.15C144.227 122.361 144.707 122.467 145.264 122.467C145.839 122.467 146.405 122.361 146.962 122.15C147.519 121.92 147.969 121.642 148.315 121.315ZM156.496 125V109.917H160.353V125H156.496ZM156.496 107.815V103.987H160.353V107.815H156.496ZM177.852 125H173.994V116.537C173.994 115.328 173.783 114.445 173.361 113.889C172.939 113.332 172.354 113.054 171.605 113.054C171.087 113.054 170.559 113.188 170.022 113.457C169.504 113.726 169.034 114.1 168.611 114.58C168.189 115.04 167.882 115.578 167.69 116.192V125H163.833V109.917H167.316V112.709C167.7 112.056 168.189 111.509 168.784 111.068C169.379 110.607 170.06 110.262 170.828 110.032C171.615 109.782 172.44 109.657 173.303 109.657C174.244 109.657 175.011 109.83 175.606 110.176C176.22 110.502 176.681 110.953 176.988 111.528C177.314 112.085 177.535 112.718 177.65 113.428C177.784 114.138 177.852 114.858 177.852 115.587V125ZM188.2 125.288C186.991 125.288 185.897 125.086 184.919 124.683C183.94 124.261 183.105 123.695 182.414 122.985C181.724 122.256 181.186 121.431 180.802 120.509C180.438 119.569 180.256 118.581 180.256 117.545C180.256 116.105 180.572 114.791 181.205 113.601C181.858 112.411 182.779 111.461 183.969 110.751C185.178 110.022 186.598 109.657 188.229 109.657C189.879 109.657 191.29 110.022 192.46 110.751C193.631 111.461 194.523 112.411 195.138 113.601C195.771 114.772 196.087 116.038 196.087 117.401C196.087 117.631 196.078 117.871 196.059 118.12C196.039 118.351 196.02 118.543 196.001 118.696H184.343C184.42 119.464 184.64 120.135 185.005 120.711C185.389 121.287 185.869 121.728 186.444 122.035C187.039 122.323 187.673 122.467 188.344 122.467C189.112 122.467 189.831 122.285 190.503 121.92C191.194 121.536 191.664 121.037 191.914 120.423L195.224 121.344C194.859 122.112 194.332 122.793 193.641 123.388C192.969 123.983 192.173 124.453 191.252 124.799C190.33 125.125 189.313 125.288 188.2 125.288ZM184.257 116.249H192.144C192.067 115.482 191.846 114.82 191.482 114.263C191.136 113.687 190.676 113.246 190.1 112.939C189.524 112.613 188.882 112.45 188.171 112.45C187.481 112.45 186.847 112.613 186.272 112.939C185.715 113.246 185.255 113.687 184.89 114.263C184.545 114.82 184.333 115.482 184.257 116.249ZM131.539 159H127.682V150.537C127.682 149.328 127.471 148.445 127.049 147.889C126.627 147.332 126.041 147.054 125.293 147.054C124.775 147.054 124.247 147.188 123.71 147.457C123.192 147.726 122.721 148.1 122.299 148.58C121.877 149.04 121.57 149.578 121.378 150.192V159H117.521V143.917H121.004V146.709C121.388 146.056 121.877 145.509 122.472 145.068C123.067 144.607 123.748 144.262 124.516 144.032C125.302 143.782 126.128 143.657 126.991 143.657C127.932 143.657 128.699 143.83 129.294 144.176C129.908 144.502 130.369 144.953 130.676 145.528C131.002 146.085 131.223 146.718 131.338 147.428C131.472 148.138 131.539 148.858 131.539 149.587V159ZM141.859 159.288C140.631 159.288 139.528 159.086 138.549 158.683C137.57 158.261 136.735 157.685 136.045 156.956C135.373 156.227 134.855 155.392 134.49 154.452C134.126 153.512 133.943 152.523 133.943 151.487C133.943 150.432 134.126 149.434 134.49 148.493C134.855 147.553 135.373 146.718 136.045 145.989C136.735 145.26 137.57 144.694 138.549 144.291C139.528 143.869 140.631 143.657 141.859 143.657C143.087 143.657 144.181 143.869 145.141 144.291C146.119 144.694 146.954 145.26 147.645 145.989C148.336 146.718 148.854 147.553 149.199 148.493C149.564 149.434 149.746 150.432 149.746 151.487C149.746 152.523 149.564 153.512 149.199 154.452C148.854 155.392 148.336 156.227 147.645 156.956C146.973 157.685 146.148 158.261 145.17 158.683C144.191 159.086 143.087 159.288 141.859 159.288ZM137.916 151.487C137.916 152.37 138.088 153.157 138.434 153.847C138.779 154.519 139.249 155.047 139.844 155.431C140.439 155.814 141.111 156.006 141.859 156.006C142.588 156.006 143.251 155.814 143.845 155.431C144.44 155.028 144.91 154.49 145.256 153.819C145.621 153.128 145.803 152.341 145.803 151.458C145.803 150.595 145.621 149.818 145.256 149.127C144.91 148.436 144.44 147.898 143.845 147.515C143.251 147.131 142.588 146.939 141.859 146.939C141.111 146.939 140.439 147.14 139.844 147.543C139.249 147.927 138.779 148.465 138.434 149.155C138.088 149.827 137.916 150.604 137.916 151.487ZM170.554 143.917H174.21L167.906 159H164.682L162.149 152.523L159.674 159H156.421L150.146 143.917H153.773L158.263 155.315L160.019 150.393L157.399 143.945H160.595L162.149 148.551L163.732 143.945H166.927L164.308 150.393L166.093 155.315L170.554 143.917Z" fill="black"/>
</svg>
