<svg width="289" height="257" viewBox="0 0 289 257" fill="none" xmlns="http://www.w3.org/2000/svg">
<path d="M145.5 60.3594C183.69 60.3594 214.641 90.8721 214.641 128.5C214.641 166.128 183.69 196.641 145.5 196.641C107.31 196.641 76.3594 166.128 76.3594 128.5C76.3594 90.8721 107.31 60.3594 145.5 60.3594Z" stroke="black" stroke-width="0.719632"/>
<path d="M90.9471 121.692C91.1511 121.812 91.3431 121.896 91.5231 121.944C91.7151 121.992 91.8951 122.016 92.0631 122.016C92.3631 122.016 92.6211 121.866 92.8371 121.566C93.0531 121.278 93.2451 120.756 93.4131 120L89.6871 110.568H92.1711L94.7271 117.912L96.9951 110.568H99.2631L95.5551 121.224C95.1951 122.256 94.7511 122.994 94.2231 123.438C93.7071 123.882 93.0711 124.104 92.3151 124.104C92.0391 124.104 91.7931 124.08 91.5771 124.032C91.3611 123.984 91.1511 123.894 90.9471 123.762V121.692ZM106.388 110.568H108.98L105.308 115.14L109.268 120H106.532L103.616 116.364H102.986V120H100.61V110.568H102.986V114.312H103.526L106.388 110.568ZM115.965 120.18C115.221 120.18 114.573 120.018 114.021 119.694C113.469 119.358 113.037 118.908 112.725 118.344V123.834H110.313V110.568H112.419V112.188C112.767 111.636 113.217 111.204 113.769 110.892C114.321 110.568 114.957 110.406 115.677 110.406C116.313 110.406 116.901 110.538 117.441 110.802C117.981 111.054 118.443 111.402 118.827 111.846C119.223 112.278 119.529 112.794 119.745 113.394C119.973 113.982 120.087 114.606 120.087 115.266C120.087 115.95 119.985 116.592 119.781 117.192C119.577 117.792 119.289 118.314 118.917 118.758C118.557 119.202 118.125 119.55 117.621 119.802C117.117 120.054 116.565 120.18 115.965 120.18ZM115.155 118.128C115.515 118.128 115.845 118.05 116.145 117.894C116.457 117.738 116.721 117.528 116.937 117.264C117.153 117 117.321 116.694 117.441 116.346C117.561 115.998 117.621 115.638 117.621 115.266C117.621 114.87 117.555 114.504 117.423 114.168C117.291 113.82 117.105 113.52 116.865 113.268C116.637 113.016 116.361 112.818 116.037 112.674C115.725 112.53 115.383 112.458 115.011 112.458C114.783 112.458 114.549 112.5 114.309 112.584C114.069 112.656 113.847 112.764 113.643 112.908C113.439 113.052 113.253 113.22 113.085 113.412C112.929 113.604 112.809 113.814 112.725 114.042V116.256C112.941 116.796 113.271 117.246 113.715 117.606C114.159 117.954 114.639 118.128 115.155 118.128ZM124.276 120.18C123.82 120.18 123.394 120.108 122.998 119.964C122.602 119.808 122.26 119.598 121.972 119.334C121.684 119.058 121.456 118.74 121.288 118.38C121.132 118.02 121.054 117.624 121.054 117.192C121.054 116.748 121.15 116.34 121.342 115.968C121.546 115.584 121.822 115.26 122.17 114.996C122.53 114.732 122.956 114.528 123.448 114.384C123.94 114.228 124.48 114.15 125.068 114.15C125.488 114.15 125.896 114.186 126.292 114.258C126.7 114.33 127.06 114.432 127.372 114.564V114.024C127.372 113.4 127.192 112.92 126.832 112.584C126.484 112.248 125.962 112.08 125.266 112.08C124.762 112.08 124.27 112.17 123.79 112.35C123.31 112.53 122.818 112.794 122.314 113.142L121.576 111.612C122.788 110.808 124.096 110.406 125.5 110.406C126.856 110.406 127.906 110.742 128.65 111.414C129.406 112.074 129.784 113.034 129.784 114.294V117.228C129.784 117.48 129.826 117.66 129.91 117.768C130.006 117.876 130.156 117.936 130.36 117.948V120C129.952 120.084 129.598 120.126 129.298 120.126C128.842 120.126 128.488 120.024 128.236 119.82C127.996 119.616 127.846 119.346 127.786 119.01L127.732 118.488C127.312 119.04 126.802 119.46 126.202 119.748C125.602 120.036 124.96 120.18 124.276 120.18ZM124.96 118.416C125.368 118.416 125.752 118.344 126.112 118.2C126.484 118.056 126.772 117.864 126.976 117.624C127.24 117.42 127.372 117.192 127.372 116.94V115.86C127.084 115.752 126.772 115.668 126.436 115.608C126.1 115.536 125.776 115.5 125.464 115.5C124.84 115.5 124.33 115.644 123.934 115.932C123.538 116.208 123.34 116.562 123.34 116.994C123.34 117.402 123.496 117.744 123.808 118.02C124.12 118.284 124.504 118.416 124.96 118.416ZM130.58 109.128V106.986H132.578V109.128H130.58ZM134.036 109.128V106.986H136.034V109.128H134.036ZM132.11 120V110.568H134.522V120H132.11ZM139.162 114.132H142.906V110.568H145.3V120H142.906V116.184H139.162V120H136.768V110.568H139.162V114.132ZM146.913 115.284C146.913 114.624 147.027 114 147.255 113.412C147.483 112.824 147.813 112.308 148.245 111.864C148.677 111.42 149.199 111.066 149.811 110.802C150.423 110.538 151.113 110.406 151.881 110.406C152.913 110.406 153.789 110.628 154.509 111.072C155.241 111.516 155.787 112.098 156.147 112.818L153.789 113.538C153.585 113.19 153.315 112.926 152.979 112.746C152.643 112.554 152.271 112.458 151.863 112.458C151.515 112.458 151.191 112.53 150.891 112.674C150.591 112.806 150.327 112.998 150.099 113.25C149.883 113.49 149.709 113.784 149.577 114.132C149.457 114.48 149.397 114.864 149.397 115.284C149.397 115.704 149.463 116.088 149.595 116.436C149.727 116.784 149.901 117.084 150.117 117.336C150.345 117.588 150.609 117.786 150.909 117.93C151.209 118.062 151.527 118.128 151.863 118.128C152.295 118.128 152.691 118.02 153.051 117.804C153.423 117.588 153.681 117.324 153.825 117.012L156.183 117.732C155.859 118.452 155.325 119.04 154.581 119.496C153.837 119.952 152.943 120.18 151.899 120.18C151.131 120.18 150.441 120.048 149.829 119.784C149.217 119.52 148.695 119.166 148.263 118.722C147.831 118.266 147.495 117.744 147.255 117.156C147.027 116.556 146.913 115.932 146.913 115.284ZM157.703 110.568H160.097V113.556H161.933C162.437 113.556 162.905 113.628 163.337 113.772C163.781 113.904 164.165 114.108 164.489 114.384C164.813 114.648 165.065 114.984 165.245 115.392C165.437 115.788 165.533 116.244 165.533 116.76C165.533 117.288 165.443 117.756 165.263 118.164C165.083 118.56 164.837 118.896 164.525 119.172C164.213 119.448 163.841 119.658 163.409 119.802C162.989 119.934 162.527 120 162.023 120H157.703V110.568ZM161.753 118.11C162.173 118.11 162.503 118.002 162.743 117.786C162.983 117.558 163.103 117.228 163.103 116.796C163.103 116.364 162.977 116.034 162.725 115.806C162.473 115.566 162.155 115.446 161.771 115.446H160.097V118.11H161.753ZM172.798 110.568H175.39L171.718 115.14L175.678 120H172.942L170.026 116.364H169.396V120H167.02V110.568H169.396V114.312H169.936L172.798 110.568ZM179.117 116.562L183.581 110.568H185.363V120H182.969V114.168L178.559 120H176.723V110.568H179.117V116.562ZM195.109 106.86C195.085 107.616 194.803 108.21 194.263 108.642C193.723 109.062 193.015 109.272 192.139 109.272C191.263 109.272 190.555 109.062 190.015 108.642C189.475 108.21 189.193 107.616 189.169 106.86H190.501C190.513 107.316 190.657 107.652 190.933 107.868C191.221 108.084 191.623 108.192 192.139 108.192C193.171 108.192 193.723 107.748 193.795 106.86H195.109ZM190.033 116.562L194.497 110.568H196.279V120H193.885V114.168L189.475 120H187.639V110.568H190.033V116.562Z" fill="black"/>
<path d="M109.914 144H107.52V136.656H104.568V134.568H112.848V136.656H109.914V144ZM118.171 144.18C117.415 144.18 116.731 144.054 116.119 143.802C115.507 143.538 114.985 143.184 114.553 142.74C114.121 142.296 113.785 141.78 113.545 141.192C113.317 140.604 113.203 139.986 113.203 139.338C113.203 138.666 113.317 138.036 113.545 137.448C113.773 136.848 114.103 136.326 114.535 135.882C114.967 135.426 115.489 135.066 116.101 134.802C116.725 134.538 117.421 134.406 118.189 134.406C118.957 134.406 119.641 134.538 120.241 134.802C120.853 135.066 121.369 135.42 121.789 135.864C122.221 136.308 122.545 136.824 122.761 137.412C122.989 138 123.103 138.612 123.103 139.248C123.103 139.404 123.097 139.554 123.085 139.698C123.085 139.842 123.073 139.962 123.049 140.058H115.759C115.795 140.43 115.885 140.76 116.029 141.048C116.173 141.336 116.359 141.582 116.587 141.786C116.815 141.99 117.073 142.146 117.361 142.254C117.649 142.362 117.949 142.416 118.261 142.416C118.741 142.416 119.191 142.302 119.611 142.074C120.043 141.834 120.337 141.522 120.493 141.138L122.563 141.714C122.215 142.434 121.657 143.028 120.889 143.496C120.133 143.952 119.227 144.18 118.171 144.18ZM120.619 138.492C120.559 137.784 120.295 137.22 119.827 136.8C119.371 136.368 118.813 136.152 118.153 136.152C117.829 136.152 117.523 136.212 117.235 136.332C116.959 136.44 116.713 136.596 116.497 136.8C116.281 137.004 116.101 137.25 115.957 137.538C115.825 137.826 115.747 138.144 115.723 138.492H120.619ZM123.443 141.948C123.791 141.924 124.073 141.852 124.289 141.732C124.517 141.612 124.703 141.39 124.847 141.066C125.003 140.742 125.129 140.298 125.225 139.734C125.333 139.158 125.441 138.408 125.549 137.484L125.873 134.568H132.479V144H130.085V136.584H127.979L127.799 138.006C127.655 139.194 127.481 140.178 127.277 140.958C127.073 141.726 126.809 142.338 126.485 142.794C126.173 143.25 125.783 143.574 125.315 143.766C124.847 143.946 124.271 144.048 123.587 144.072L123.443 141.948ZM139.089 144.18C138.333 144.18 137.649 144.054 137.037 143.802C136.425 143.538 135.903 143.184 135.471 142.74C135.039 142.296 134.703 141.78 134.463 141.192C134.235 140.604 134.121 139.986 134.121 139.338C134.121 138.666 134.235 138.036 134.463 137.448C134.691 136.848 135.021 136.326 135.453 135.882C135.885 135.426 136.407 135.066 137.019 134.802C137.643 134.538 138.339 134.406 139.107 134.406C139.875 134.406 140.559 134.538 141.159 134.802C141.771 135.066 142.287 135.42 142.707 135.864C143.139 136.308 143.463 136.824 143.679 137.412C143.907 138 144.021 138.612 144.021 139.248C144.021 139.404 144.015 139.554 144.003 139.698C144.003 139.842 143.991 139.962 143.967 140.058H136.677C136.713 140.43 136.803 140.76 136.947 141.048C137.091 141.336 137.277 141.582 137.505 141.786C137.733 141.99 137.991 142.146 138.279 142.254C138.567 142.362 138.867 142.416 139.179 142.416C139.659 142.416 140.109 142.302 140.529 142.074C140.961 141.834 141.255 141.522 141.411 141.138L143.481 141.714C143.133 142.434 142.575 143.028 141.807 143.496C141.051 143.952 140.145 144.18 139.089 144.18ZM141.537 138.492C141.477 137.784 141.213 137.22 140.745 136.8C140.289 136.368 139.731 136.152 139.071 136.152C138.747 136.152 138.441 136.212 138.153 136.332C137.877 136.44 137.631 136.596 137.415 136.8C137.199 137.004 137.019 137.25 136.875 137.538C136.743 137.826 136.665 138.144 136.641 138.492H141.537ZM151.863 136.566H147.921V144H145.527V134.568H151.863V136.566ZM158.931 144.18C158.187 144.18 157.539 144.018 156.987 143.694C156.435 143.358 156.003 142.908 155.691 142.344V147.834H153.279V134.568H155.385V136.188C155.733 135.636 156.183 135.204 156.735 134.892C157.287 134.568 157.923 134.406 158.643 134.406C159.279 134.406 159.867 134.538 160.407 134.802C160.947 135.054 161.409 135.402 161.793 135.846C162.189 136.278 162.495 136.794 162.711 137.394C162.939 137.982 163.053 138.606 163.053 139.266C163.053 139.95 162.951 140.592 162.747 141.192C162.543 141.792 162.255 142.314 161.883 142.758C161.523 143.202 161.091 143.55 160.587 143.802C160.083 144.054 159.531 144.18 158.931 144.18ZM158.121 142.128C158.481 142.128 158.811 142.05 159.111 141.894C159.423 141.738 159.687 141.528 159.903 141.264C160.119 141 160.287 140.694 160.407 140.346C160.527 139.998 160.587 139.638 160.587 139.266C160.587 138.87 160.521 138.504 160.389 138.168C160.257 137.82 160.071 137.52 159.831 137.268C159.603 137.016 159.327 136.818 159.003 136.674C158.691 136.53 158.349 136.458 157.977 136.458C157.749 136.458 157.515 136.5 157.275 136.584C157.035 136.656 156.813 136.764 156.609 136.908C156.405 137.052 156.219 137.22 156.051 137.412C155.895 137.604 155.775 137.814 155.691 138.042V140.256C155.907 140.796 156.237 141.246 156.681 141.606C157.125 141.954 157.605 142.128 158.121 142.128ZM167.242 144.18C166.786 144.18 166.36 144.108 165.964 143.964C165.568 143.808 165.226 143.598 164.938 143.334C164.65 143.058 164.422 142.74 164.254 142.38C164.098 142.02 164.02 141.624 164.02 141.192C164.02 140.748 164.116 140.34 164.308 139.968C164.512 139.584 164.788 139.26 165.136 138.996C165.496 138.732 165.922 138.528 166.414 138.384C166.906 138.228 167.446 138.15 168.034 138.15C168.454 138.15 168.862 138.186 169.258 138.258C169.666 138.33 170.026 138.432 170.338 138.564V138.024C170.338 137.4 170.158 136.92 169.798 136.584C169.45 136.248 168.928 136.08 168.232 136.08C167.728 136.08 167.236 136.17 166.756 136.35C166.276 136.53 165.784 136.794 165.28 137.142L164.542 135.612C165.754 134.808 167.062 134.406 168.466 134.406C169.822 134.406 170.872 134.742 171.616 135.414C172.372 136.074 172.75 137.034 172.75 138.294V141.228C172.75 141.48 172.792 141.66 172.876 141.768C172.972 141.876 173.122 141.936 173.326 141.948V144C172.918 144.084 172.564 144.126 172.264 144.126C171.808 144.126 171.454 144.024 171.202 143.82C170.962 143.616 170.812 143.346 170.752 143.01L170.698 142.488C170.278 143.04 169.768 143.46 169.168 143.748C168.568 144.036 167.926 144.18 167.242 144.18ZM167.926 142.416C168.334 142.416 168.718 142.344 169.078 142.2C169.45 142.056 169.738 141.864 169.942 141.624C170.206 141.42 170.338 141.192 170.338 140.94V139.86C170.05 139.752 169.738 139.668 169.402 139.608C169.066 139.536 168.742 139.5 168.43 139.5C167.806 139.5 167.296 139.644 166.9 139.932C166.504 140.208 166.306 140.562 166.306 140.994C166.306 141.402 166.462 141.744 166.774 142.02C167.086 142.284 167.47 142.416 167.926 142.416ZM180.349 139.59L183.139 134.568H185.605V144H183.301V138.33L180.907 142.578H179.773L177.379 138.33V144H175.075V134.568H177.559L180.349 139.59Z" fill="black"/>
</svg>
