<svg width="337" height="338" viewBox="0 0 337 338" fill="none" xmlns="http://www.w3.org/2000/svg">
<path d="M141.393 300.341C99.7119 296.145 68.2416 282.578 46.9817 259.64C25.7217 236.422 15.0918 206.77 15.0918 170.684C15.0918 134.877 25.442 105.225 46.1425 81.7277C67.1227 58.2299 98.8727 44.1032 141.393 39.3477V0.324463H197.2V39.3477C238.881 44.1032 269.932 58.2299 290.352 81.7277C311.053 105.225 321.403 134.877 321.403 170.684C321.403 207.049 310.913 236.701 289.933 259.64C269.232 282.298 238.321 295.866 197.2 300.341V337H141.5L141.393 300.341ZM197.2 247.891C220.418 244.254 237.482 235.862 248.392 222.715C259.581 209.287 265.176 191.524 265.176 169.425C265.176 147.326 259.581 129.842 248.392 116.974C237.482 103.827 220.418 95.7145 197.2 92.6374V247.891ZM141.393 92.6374C117.336 95.7145 99.5721 103.687 88.1029 116.555C76.9134 129.143 71.3187 146.766 71.3187 169.425C71.3187 191.804 76.9134 209.567 88.1029 222.715C99.5721 235.862 117.336 244.254 141.393 247.891V92.6374Z" fill="#20BA7F" fill-opacity="0.5"/>
</svg>
